<svg width="20" height="20" viewBox="0 0 20 20" fill="none" xmlns="http://www.w3.org/2000/svg">
<path d="M6.82986 0.75H3.75989C2.58989 0.75 1.62988 1.7 1.62988 2.88V15.66C1.62988 16.78 2.48989 17.64 3.56989 17.64H14.4099C14.4099 17.64 15.1199 17.64 15.8199 17.64C16.3999 18.17 16.6499 18.4 17.4799 19.12C17.8199 19.42 18.3599 19.18 18.3599 18.72V2.88C18.3599 1.71 17.4099 0.75 16.2299 0.75H6.82986V0.75Z" stroke="white" stroke-width="1.5" stroke-linecap="round" stroke-linejoin="round"/>
<path d="M11.8298 11.99C10.6398 12.33 9.39984 12.3 8.29984 12.01C7.95984 12.41 7.41986 13.04 7.41986 13.04C5.35986 12.97 4.59985 11.63 4.59985 11.63C4.59985 8.62999 5.89984 6.24998 5.89984 6.24998C7.23984 5.23998 8.49985 5.26999 8.49985 5.26999L8.69986 5.73999C9.54986 5.60999 10.4299 5.60998 11.2899 5.75998L11.4598 5.26999C11.4598 5.26999 12.7198 5.22998 14.0598 6.24998C14.0598 6.24998 15.3998 8.62999 15.3998 11.63C15.3998 11.63 14.6098 12.97 12.5498 13.04C12.3098 12.69 12.0698 12.34 11.8298 11.99Z" stroke="white" stroke-width="1.5" stroke-linecap="round" stroke-linejoin="round"/>
<path d="M8.39987 10.19C8.96873 10.19 9.42987 9.72886 9.42987 9.16C9.42987 8.59115 8.96873 8.13 8.39987 8.13C7.83102 8.13 7.36987 8.59115 7.36987 9.16C7.36987 9.72886 7.83102 10.19 8.39987 10.19Z" fill="white"/>
<path d="M11.49 10.19C12.0588 10.19 12.52 9.72886 12.52 9.16C12.52 8.59115 12.0588 8.13 11.49 8.13C10.9211 8.13 10.46 8.59115 10.46 9.16C10.46 9.72886 10.9211 10.19 11.49 10.19Z" fill="white"/>
</svg>
